# xmcd
# Copyright (C) 1995-1998 Ti Kan
#
# Track frame offsets:
#       150
#       17530
#       33331
#       49079
#       65667
#       84257
#       99440
#       117174
#       131264
#       147631
#       164562
#       181011
#       197330
#       230358
#
# Disc length: 3217 seconds
#
# Revision: 0
# Processed by: cddbd v1.5.1PL0 Copyright (c) Steve Scherf et al.
# Submitted via: CD-Transfer v1.0
#
DISCID=af0c8f0e
DTITLE=Solegx - Startklar
DYEAR=2005
DGENRE=
TTITLE0=Halbe Ängu
TTITLE1=Dr Tag Fat A
TTITLE2=Strand
TTITLE3=Ma Im Mond
TTITLE4=Tram
TTITLE5=Tröim
TTITLE6=Novämber
TTITLE7=Räge
TTITLE8=Vampir
TTITLE9=Stimme
TTITLE10=Himublau
TTITLE11=Bättler
TTITLE12=Du Und Ig
TTITLE13=Data Track
EXTD=
EXTT0=
EXTT1=
EXTT2=
EXTT3=
EXTT4=
EXTT5=
EXTT6=
EXTT7=
EXTT8=
EXTT9=
EXTT10=
EXTT11=
EXTT12=
EXTT13=
PLAYORDER=
